<svg width="32" height="32" viewBox="0 0 32 32" fill="none" xmlns="http://www.w3.org/2000/svg">
<path d="M16 32C24.8366 32 32 24.8366 32 16C32 7.16344 24.8366 0 16 0C7.16344 0 0 7.16344 0 16C0 24.8366 7.16344 32 16 32Z" fill="#16C784"/>
<rect width="20" height="20" transform="translate(6 6)" fill="#16C784"/>
<path d="M18.4999 10.9998C18.0416 10.9998 17.6666 11.3748 17.6666 11.8331C17.6666 12.2914 18.0416 12.6664 18.4999 12.6664H21.4916L16.8416 17.3164L14.6833 15.1664C14.0333 14.5164 12.9749 14.5164 12.3249 15.1664L7.9166 19.5748C7.5916 19.8998 7.5916 20.4248 7.9166 20.7498C8.08327 20.9164 8.2916 20.9914 8.50827 20.9914C8.72494 20.9914 8.93327 20.9081 9.09994 20.7498L13.5083 16.3414L15.6666 18.4914C16.3166 19.1414 17.3749 19.1414 18.0249 18.4914L22.6749 13.8414V16.8331C22.6749 17.2914 23.0499 17.6664 23.5083 17.6664C23.9666 17.6664 24.3416 17.2914 24.3416 16.8331V12.6664C24.3416 11.7498 23.5916 10.9998 22.6749 10.9998H18.4999Z" fill="white"/>
</svg>
