<svg width="32" height="32" viewBox="0 0 32 32" fill="none" xmlns="http://www.w3.org/2000/svg">
<path d="M16 32C24.8366 32 32 24.8366 32 16C32 7.16345 24.8366 0 16 0C7.16344 0 0 7.16345 0 16C0 24.8366 7.16344 32 16 32Z" fill="#13B2CF"/>
<rect width="20" height="20" transform="translate(6 6)" fill="#13B2CF"/>
<path d="M22.6335 10.1667H20.9668V9.33333C20.9668 8.875 20.5918 8.5 20.1335 8.5H11.8001C11.3418 8.5 10.9668 8.875 10.9668 9.33333V10.1667H9.30013C8.8418 10.1667 8.4668 10.5417 8.4668 11V13.5C8.4668 15.2833 9.87513 16.725 11.6335 16.8167C12.3668 18.0917 13.6335 19.0083 15.1335 19.2583V21.8333H12.6335C12.1751 21.8333 11.8001 22.2083 11.8001 22.6667C11.8001 23.125 12.1751 23.5 12.6335 23.5H19.3001C19.7585 23.5 20.1335 23.125 20.1335 22.6667C20.1335 22.2083 19.7585 21.8333 19.3001 21.8333H16.8001V19.2583C18.3001 19.0083 19.5668 18.0917 20.3001 16.8167C22.0585 16.725 23.4668 15.2833 23.4668 13.5V11C23.4668 10.5417 23.0918 10.1667 22.6335 10.1667ZM10.1335 13.5V11.8333H10.9668V14.3333C10.9668 14.5417 10.9835 14.75 11.0085 14.9583C10.4918 14.675 10.1335 14.1333 10.1335 13.5ZM15.9668 17.6667C14.1251 17.6667 12.6335 16.175 12.6335 14.3333V10.1667H19.3001V14.3333C19.3001 16.175 17.8085 17.6667 15.9668 17.6667ZM21.8001 13.5C21.8001 14.1333 21.4418 14.675 20.9251 14.9583C20.9501 14.75 20.9668 14.5417 20.9668 14.3333V11.8333H21.8001V13.5Z" fill="white"/>
</svg>
