<svg width="32" height="32" viewBox="0 0 32 32" fill="none" xmlns="http://www.w3.org/2000/svg">
<path d="M16 32C24.8366 32 32 24.8366 32 16C32 7.16344 24.8366 0 16 0C7.16344 0 0 7.16344 0 16C0 24.8366 7.16344 32 16 32Z" fill="#F5B97F"/>
<rect width="20" height="20" transform="translate(6 6)" fill="#F5B97F"/>
<path d="M16.0003 24.3332C11.4087 24.3332 7.66699 20.5915 7.66699 15.9998C7.66699 11.4082 11.4087 7.6665 16.0003 7.6665C20.592 7.6665 24.3337 11.4082 24.3337 15.9998C24.3337 20.5915 20.592 24.3332 16.0003 24.3332ZM16.0003 9.33317C12.3253 9.33317 9.33366 12.3248 9.33366 15.9998C9.33366 19.6748 12.3253 22.6665 16.0003 22.6665C19.6753 22.6665 22.667 19.6748 22.667 15.9998C22.667 12.3248 19.6753 9.33317 16.0003 9.33317Z" fill="white"/>
<path d="M18.5003 18.4998H13.5003C13.042 18.4998 12.667 18.1248 12.667 17.6665C12.667 17.2082 13.042 16.8332 13.5003 16.8332H18.5003C18.9587 16.8332 19.3337 17.2082 19.3337 17.6665C19.3337 18.1248 18.9587 18.4998 18.5003 18.4998Z" fill="white"/>
<path d="M14.3337 15.1665H12.667C12.2087 15.1665 11.8337 14.7915 11.8337 14.3332C11.8337 13.8748 12.2087 13.4998 12.667 13.4998H14.3337C14.792 13.4998 15.167 13.8748 15.167 14.3332C15.167 14.7915 14.792 15.1665 14.3337 15.1665Z" fill="white"/>
<path d="M19.3337 15.1665H17.667C17.2087 15.1665 16.8337 14.7915 16.8337 14.3332C16.8337 13.8748 17.2087 13.4998 17.667 13.4998H19.3337C19.792 13.4998 20.167 13.8748 20.167 14.3332C20.167 14.7915 19.792 15.1665 19.3337 15.1665Z" fill="white"/>
</svg>
