<svg width="32" height="32" viewBox="0 0 32 32" fill="none" xmlns="http://www.w3.org/2000/svg">
<path d="M16 32C24.8366 32 32 24.8366 32 16C32 7.16344 24.8366 0 16 0C7.16344 0 0 7.16344 0 16C0 24.8366 7.16344 32 16 32Z" fill="#8A3FFC"/>
<rect width="20" height="20" transform="translate(6 6)" fill="#8A3FFC"/>
<path fill-rule="evenodd" clip-rule="evenodd" d="M14.7095 12.7059C14.8945 12.0046 15.2028 11.3929 15.6104 10.8687C16.2979 9.98459 17.2285 9.39943 18.2033 9.03408C20.1226 8.31481 22.3591 8.39196 23.7611 8.85258L24.3337 9.04067V9.63348C24.3337 12.8538 23.5093 14.9866 21.9338 16.2764C20.6299 17.3438 18.944 17.7182 17.1835 17.8085C17.2252 18.2421 17.2468 18.7023 17.2468 19.1906V22.6765C17.2468 23.1313 16.8713 23.5 16.4082 23.5C15.945 23.5 15.5695 23.1313 15.5695 22.6765V20.1409C13.0239 20.4186 10.9597 19.9678 9.5524 18.7289C7.95757 17.3249 7.43704 15.1148 7.75661 12.5317L7.83015 11.9373L8.4287 11.8228C9.71495 11.5766 11.9092 11.2882 13.8109 12.1758C14.1262 12.323 14.4267 12.4989 14.7095 12.7059ZM18.8014 10.5727C20.0858 10.0914 21.5756 10.0627 22.6443 10.2664C22.5433 12.8322 21.8209 14.2246 20.8598 15.0114C19.9154 15.7845 18.5858 16.1071 16.9025 16.1723C16.7247 15.4855 16.4823 14.8885 16.1857 14.3729C16.187 14.3544 16.1876 14.3358 16.1876 14.3169C16.1876 13.2339 16.4932 12.4473 16.9435 11.8682C17.4002 11.2809 18.0463 10.8557 18.8014 10.5727ZM15.3728 16.9846C15.3725 16.9926 15.3724 17.0005 15.3724 17.0086C15.3724 17.117 15.3938 17.2206 15.4326 17.3155C15.4901 17.6725 15.5309 18.0613 15.5523 18.4849C13.191 18.7744 11.6166 18.3342 10.672 17.5027C9.73857 16.6809 9.23281 15.3095 9.36377 13.3349C10.527 13.1642 11.9309 13.1219 13.0908 13.6632C14.0424 14.1074 14.9773 15.0218 15.3728 16.9846Z" fill="white"/>
</svg>
