<svg width="32" height="32" viewBox="0 0 32 32" fill="none" xmlns="http://www.w3.org/2000/svg">
<path d="M16 32C24.8366 32 32 24.8366 32 16C32 7.16344 24.8366 0 16 0C7.16344 0 0 7.16344 0 16C0 24.8366 7.16344 32 16 32Z" fill="#FF775F"/>
<path d="M20.8503 15.2501C19.3753 12.7334 19.3337 11.0084 19.3337 11.0001C19.3337 10.6334 19.092 10.3084 18.742 10.2001C18.392 10.0918 18.0087 10.2334 17.8087 10.5334L17.242 11.3751C16.4337 8.88342 14.867 7.84176 14.7837 7.79176C14.5253 7.62509 14.2003 7.61676 13.9337 7.75842C13.667 7.90842 13.5003 8.18342 13.5003 8.49176C13.5003 11.7168 12.5587 13.1168 11.6503 14.4668C10.9253 15.5501 10.167 16.6668 10.167 18.4918C10.167 21.7084 12.7837 24.3251 16.0003 24.3251C19.217 24.3251 21.8337 21.7084 21.8337 18.4918C21.8337 17.1084 21.3087 16.0334 20.8503 15.2418V15.2501ZM16.0003 22.3584C15.467 21.7501 15.167 20.9751 15.167 20.1584C15.167 19.3418 15.467 18.5668 16.0003 17.9584C16.5337 18.5668 16.8337 19.3418 16.8337 20.1584C16.8337 20.9751 16.5337 21.7501 16.0003 22.3584ZM18.117 22.0668C18.367 21.4668 18.5003 20.8251 18.5003 20.1668C18.5003 18.6001 17.7753 17.1418 16.5087 16.1751C16.2087 15.9418 15.792 15.9418 15.492 16.1751C14.2253 17.1501 13.5003 18.6001 13.5003 20.1668C13.5003 20.8334 13.642 21.4751 13.8837 22.0668C12.6587 21.3418 11.8337 20.0168 11.8337 18.5001C11.8337 17.1834 12.3337 16.4418 13.0337 15.4084C13.792 14.2751 14.7003 12.9251 15.042 10.5251C15.467 11.2251 15.8753 12.2251 16.0087 13.5918C16.042 13.9418 16.292 14.2334 16.6337 14.3168C16.9753 14.4001 17.3337 14.2584 17.5253 13.9668L18.0753 13.1418C18.3253 13.9501 18.742 14.9584 19.4087 16.1001C19.7837 16.7418 20.167 17.5251 20.167 18.5084C20.167 20.0334 19.3337 21.3501 18.117 22.0751V22.0668Z" fill="white"/>
</svg>
