<svg width="32" height="32" viewBox="0 0 32 32" fill="none" xmlns="http://www.w3.org/2000/svg">
<path d="M16 32C24.8366 32 32 24.8366 32 16C32 7.16344 24.8366 0 16 0C7.16344 0 0 7.16344 0 16C0 24.8366 7.16344 32 16 32Z" fill="#486DF7"/>
<rect width="20" height="20" transform="translate(6 6)" fill="#486DF7"/>
<path d="M19.8582 18.4998L21.0582 16.4165C21.2082 16.1582 21.2082 15.8415 21.0582 15.5832C20.9082 15.3248 20.6332 15.1665 20.3332 15.1665H17.9249L17.4665 14.3665L19.7915 12.8415C20.0249 12.6915 20.1665 12.4248 20.1665 12.1415V8.49984C20.1665 8.0415 19.7915 7.6665 19.3332 7.6665H12.6832C12.2249 7.6665 11.8499 8.0415 11.8499 8.49984V12.1498C11.8499 12.4332 11.9915 12.6915 12.2249 12.8498L14.5499 14.3748L14.0915 15.1748H11.6832C11.3832 15.1748 11.1082 15.3332 10.9582 15.5915C10.8082 15.8498 10.8082 16.1665 10.9582 16.4248L12.1582 18.5082L10.9582 20.5915C10.8082 20.8498 10.8082 21.1665 10.9582 21.4248C11.1082 21.6832 11.3832 21.8415 11.6832 21.8415H14.0915L15.2915 23.9248C15.4415 24.1832 15.7165 24.3415 16.0165 24.3415C16.3165 24.3415 16.5915 24.1832 16.7415 23.9248L17.9415 21.8415H20.3499C20.6499 21.8415 20.9249 21.6832 21.0749 21.4248C21.2249 21.1665 21.2249 20.8498 21.0749 20.5915L19.8749 18.5082L19.8582 18.4998ZM18.5082 11.6915L16.8415 12.7832V9.33317H18.5082V11.6915ZM13.5082 9.33317H15.1749V12.7915L13.5082 11.6998V9.3415V9.33317ZM18.1749 18.9165L18.8999 20.1665H17.4582C17.1582 20.1665 16.8832 20.3248 16.7332 20.5832L16.0082 21.8332L15.2832 20.5832C15.1332 20.3248 14.8582 20.1665 14.5582 20.1665H13.1165L13.8415 18.9165C13.9915 18.6582 13.9915 18.3415 13.8415 18.0832L13.1165 16.8332H14.5582C14.8582 16.8332 15.1332 16.6748 15.2832 16.4165L16.0082 15.1665L16.7332 16.4165C16.8832 16.6748 17.1582 16.8332 17.4582 16.8332H18.8999L18.1749 18.0832C18.0249 18.3415 18.0249 18.6582 18.1749 18.9165Z" fill="white"/>
</svg>
