<svg width="32" height="32" viewBox="0 0 32 32" fill="none" xmlns="http://www.w3.org/2000/svg">
<path d="M16 32C24.8366 32 32 24.8366 32 16C32 7.16344 24.8366 0 16 0C7.16344 0 0 7.16344 0 16C0 24.8366 7.16344 32 16 32Z" fill="#FF775F"/>
<path d="M23.4998 11.8332H11.8332C11.3748 11.8332 10.9998 11.4582 10.9998 10.9998C10.9998 10.5415 11.3748 10.1665 11.8332 10.1665H23.4998C23.9582 10.1665 24.3332 10.5415 24.3332 10.9998C24.3332 11.4582 23.9582 11.8332 23.4998 11.8332Z" fill="white"/>
<path d="M23.4998 16.8332H11.8332C11.3748 16.8332 10.9998 16.4582 10.9998 15.9998C10.9998 15.5415 11.3748 15.1665 11.8332 15.1665H23.4998C23.9582 15.1665 24.3332 15.5415 24.3332 15.9998C24.3332 16.4582 23.9582 16.8332 23.4998 16.8332Z" fill="white"/>
<path d="M23.4998 21.8332H11.8332C11.3748 21.8332 10.9998 21.4582 10.9998 20.9998C10.9998 20.5415 11.3748 20.1665 11.8332 20.1665H23.4998C23.9582 20.1665 24.3332 20.5415 24.3332 20.9998C24.3332 21.4582 23.9582 21.8332 23.4998 21.8332Z" fill="white"/>
<path d="M8.49984 11.9582C9.02911 11.9582 9.45817 11.5291 9.45817 10.9998C9.45817 10.4706 9.02911 10.0415 8.49984 10.0415C7.97057 10.0415 7.5415 10.4706 7.5415 10.9998C7.5415 11.5291 7.97057 11.9582 8.49984 11.9582Z" fill="white"/>
<path d="M8.49984 16.9582C9.02911 16.9582 9.45817 16.5291 9.45817 15.9998C9.45817 15.4706 9.02911 15.0415 8.49984 15.0415C7.97057 15.0415 7.5415 15.4706 7.5415 15.9998C7.5415 16.5291 7.97057 16.9582 8.49984 16.9582Z" fill="white"/>
<path d="M8.49984 21.9582C9.02911 21.9582 9.45817 21.5291 9.45817 20.9998C9.45817 20.4706 9.02911 20.0415 8.49984 20.0415C7.97057 20.0415 7.5415 20.4706 7.5415 20.9998C7.5415 21.5291 7.97057 21.9582 8.49984 21.9582Z" fill="white"/>
</svg>
