<svg width="32" height="32" viewBox="0 0 32 32" fill="none" xmlns="http://www.w3.org/2000/svg">
<path d="M16 32C24.8366 32 32 24.8366 32 16C32 7.16344 24.8366 0 16 0C7.16344 0 0 7.16344 0 16C0 24.8366 7.16344 32 16 32Z" fill="#2444D4"/>
<rect width="20" height="20" transform="translate(6 6)" fill="#2444D4"/>
<path d="M22.6165 11.2583C22.3415 9.69167 20.9831 8.5 19.3415 8.5C18.4748 8.5 17.6915 8.84167 17.0915 9.38333C16.7331 9.35833 16.3665 9.33333 16.0081 9.33333C11.3331 9.33333 7.6748 11.5333 7.6748 14.3333V18.5C7.6748 21.3 11.3331 23.5 16.0081 23.5C20.6831 23.5 24.3415 21.3 24.3415 18.5V14.3333C24.3415 13.2 23.7248 12.125 22.6165 11.2583ZM19.3415 10.1667C20.2581 10.1667 21.0081 10.9167 21.0081 11.8333C21.0081 12.75 20.2581 13.5 19.3415 13.5C18.4248 13.5 17.6748 12.75 17.6748 11.8333C17.6748 10.9167 18.4248 10.1667 19.3415 10.1667ZM16.0081 11C16.0081 11 16.0831 11 16.1248 11C16.0581 11.2667 16.0081 11.5417 16.0081 11.825C16.0081 13.6667 17.4998 15.1583 19.3415 15.1583C20.6498 15.1583 21.7665 14.4 22.3165 13.3C22.5248 13.6 22.6748 13.9417 22.6748 14.325C22.6748 15.8 20.2665 17.4417 16.7331 17.6417C16.7998 17.375 16.8415 17.1083 16.8415 16.825C16.8415 14.9833 15.3498 13.4917 13.5081 13.4917C11.9665 13.4917 10.6748 14.55 10.2998 15.975C9.69147 15.4583 9.34147 14.8833 9.34147 14.325C9.34147 12.75 12.0831 10.9917 16.0081 10.9917V11ZM11.8498 16.8917C11.8498 16.8917 11.8498 16.85 11.8498 16.8333C11.8498 15.9167 12.5998 15.1667 13.5165 15.1667C14.4331 15.1667 15.1831 15.9167 15.1831 16.8333C15.1831 17.1167 15.0998 17.375 14.9665 17.6167C13.7748 17.5167 12.7165 17.2583 11.8581 16.8917H11.8498ZM16.0081 21.8333C12.0831 21.8333 9.34147 20.075 9.34147 18.5V17.3583C10.8498 18.5667 13.2498 19.3333 16.0081 19.3333C18.7665 19.3333 21.1665 18.5667 22.6748 17.3583V18.5C22.6748 20.075 19.9331 21.8333 16.0081 21.8333Z" fill="white"/>
</svg>
