<svg width="32" height="32" viewBox="0 0 32 32" fill="none" xmlns="http://www.w3.org/2000/svg">
<path d="M16 32C24.8366 32 32 24.8366 32 16C32 7.16344 24.8366 0 16 0C7.16344 0 0 7.16344 0 16C0 24.8366 7.16344 32 16 32Z" fill="#8A3FFC"/>
<path d="M23.7 12.9583C23.4167 12.8583 23.125 12.925 22.9167 13.0917C22.5417 12.2083 22 11.3917 21.3 10.7C19.8833 9.28333 18 8.5 16 8.5C14 8.5 12.1167 9.28333 10.7 10.7C9.28333 12.1167 8.5 14 8.5 16C8.5 18 9.28333 19.8833 10.7 21.3C12.1167 22.7167 14 23.5 16 23.5C18 23.5 19.8833 22.7167 21.3 21.3C21.625 20.975 21.625 20.45 21.3 20.125C20.975 19.8 20.45 19.8 20.125 20.125C19.025 21.225 17.5583 21.8333 16 21.8333C14.4417 21.8333 12.975 21.225 11.875 20.125C10.775 19.025 10.1667 17.5583 10.1667 16C10.1667 14.4417 10.775 12.975 11.875 11.875C12.975 10.775 14.4417 10.1667 16 10.1667C17.5583 10.1667 19.025 10.775 20.125 11.875C20.6083 12.3583 20.9917 12.9167 21.275 13.5167C20.9833 13.4167 20.6583 13.475 20.425 13.7C20.0917 14.025 20.0917 14.55 20.4083 14.875L22.0667 16.575C22.0667 16.575 22.1167 16.6 22.1333 16.625C22.1833 16.6667 22.2417 16.7083 22.3 16.7417C22.3417 16.7583 22.3833 16.775 22.425 16.7833C22.4583 16.7917 22.4917 16.8083 22.525 16.8167C22.55 16.8167 22.575 16.8167 22.6 16.8167C22.6167 16.8167 22.6417 16.825 22.6583 16.825C22.6833 16.825 22.7 16.8167 22.725 16.8083C22.7833 16.8083 22.8417 16.7917 22.9 16.775C22.9417 16.7667 22.975 16.75 23.0083 16.7333C23.0667 16.7083 23.1167 16.6667 23.1667 16.6333C23.1917 16.6167 23.2167 16.6083 23.2333 16.5917C23.2417 16.5833 23.25 16.5667 23.2583 16.5583C23.3 16.5083 23.3333 16.4583 23.3667 16.4C23.3917 16.3667 23.4167 16.3333 23.425 16.2917C23.425 16.2833 23.4333 16.275 23.4417 16.2667L24.2083 14.0167C24.3583 13.5833 24.125 13.1083 23.6917 12.9583H23.7Z" fill="white"/>
<path d="M16 11.5167C15.5417 11.5167 15.1667 11.8917 15.1667 12.35V16C15.1667 16.3 15.325 16.575 15.5833 16.725L18.7167 18.5333C18.85 18.6083 18.9917 18.6417 19.1333 18.6417C19.425 18.6417 19.7 18.4917 19.8583 18.225C20.0917 17.825 19.95 17.3167 19.55 17.0833L16.8333 15.5167V12.3417C16.8333 11.8833 16.4583 11.5083 16 11.5083V11.5167Z" fill="white"/>
</svg>
