<svg width="32" height="32" viewBox="0 0 32 32" fill="none" xmlns="http://www.w3.org/2000/svg">
<path d="M16 32C24.8366 32 32 24.8366 32 16C32 7.16345 24.8366 0 16 0C7.16344 0 0 7.16345 0 16C0 24.8366 7.16344 32 16 32Z" fill="#8A3FFC"/>
<path d="M23.5 22.6667H9.33333C8.41667 22.6667 7.66667 21.9167 7.66667 21V10.1667C7.66667 9.70833 8.04167 9.33333 8.5 9.33333C8.95833 9.33333 9.33333 9.70833 9.33333 10.1667V21H23.5C23.9583 21 24.3333 21.375 24.3333 21.8333C24.3333 22.2917 23.9583 22.6667 23.5 22.6667Z" fill="white"/>
<path d="M11.85 19.3333C11.3917 19.3333 11.0167 18.9583 11.0167 18.5C11.0167 18.0417 11.3917 17.6667 11.85 17.6667C15.0083 17.6667 16.0083 15.8917 17.1583 13.8333C18.3417 11.725 19.675 9.33333 23.5 9.33333C23.9583 9.33333 24.3333 9.70833 24.3333 10.1667C24.3333 10.625 23.9583 11 23.5 11C20.65 11 19.75 12.6083 18.6083 14.6417C17.375 16.8333 15.9833 19.325 11.85 19.325V19.3333Z" fill="white"/>
</svg>
