<svg width="32" height="32" viewBox="0 0 32 32" fill="none" xmlns="http://www.w3.org/2000/svg">
<path d="M16 32C24.8366 32 32 24.8366 32 16C32 7.16344 24.8366 0 16 0C7.16344 0 0 7.16344 0 16C0 24.8366 7.16344 32 16 32Z" fill="#13B2CF"/>
<path fill-rule="evenodd" clip-rule="evenodd" d="M18.915 7.90784C19.242 7.58402 19.7696 7.58662 20.0935 7.91366L22.4255 10.2688C22.747 10.5936 22.747 11.1167 22.4255 11.4415L20.0935 13.7966C19.7696 14.1237 19.242 14.1263 18.915 13.8025C18.5879 13.4786 18.5853 12.951 18.9091 12.624L19.8354 11.6885H14.1311C12.3885 11.6885 11 13.0738 11 14.7531C11 15.2134 10.6269 15.5865 10.1667 15.5865C9.70643 15.5865 9.33333 15.2134 9.33333 14.7531C9.33333 12.1269 11.4947 10.0218 14.1311 10.0218H19.8354L18.9091 9.08634C18.5853 8.7593 18.5879 8.23167 18.915 7.90784ZM21.8333 16.4135C22.2936 16.4135 22.6667 16.7866 22.6667 17.2469C22.6667 19.8731 20.5053 21.9782 17.8689 21.9782L12.1646 21.9782L13.0908 22.9137C13.4147 23.2407 13.4121 23.7683 13.085 24.0922C12.758 24.416 12.2304 24.4134 11.9065 24.0863L9.57453 21.7312C9.25297 21.4064 9.25297 20.8833 9.57453 20.5585L11.9065 18.2034C12.2304 17.8763 12.758 17.8737 13.085 18.1975C13.4121 18.5214 13.4147 19.049 13.0909 19.376L12.1646 20.3115L17.8689 20.3115C19.6115 20.3115 21 18.9262 21 17.2469C21 16.7866 21.3731 16.4135 21.8333 16.4135Z" fill="white"/>
</svg>