<svg width="32" height="32" viewBox="0 0 32 32" fill="none" xmlns="http://www.w3.org/2000/svg">
<path d="M16 32C24.8366 32 32 24.8366 32 16C32 7.16344 24.8366 0 16 0C7.16344 0 0 7.16344 0 16C0 24.8366 7.16344 32 16 32Z" fill="#2444D4"/>
<path d="M20.167 15.1667C20.6272 15.1667 21.0003 14.7936 21.0003 14.3334C21.0003 13.8731 20.6272 13.5 20.167 13.5C19.7068 13.5 19.3337 13.8731 19.3337 14.3334C19.3337 14.7936 19.7068 15.1667 20.167 15.1667Z" fill="white"/>
<path d="M13.5003 15.1667C13.9606 15.1667 14.3337 14.7936 14.3337 14.3334C14.3337 13.8731 13.9606 13.5 13.5003 13.5C13.0401 13.5 12.667 13.8731 12.667 14.3334C12.667 14.7936 13.0401 15.1667 13.5003 15.1667Z" fill="white"/>
<path d="M16.0003 7.6167C11.4087 7.6167 7.66699 11.35 7.66699 15.95C7.66699 20.55 11.4087 24.2834 16.0003 24.2834C20.592 24.2834 24.3337 20.5417 24.3337 15.95C24.3337 11.3584 20.592 7.6167 16.0003 7.6167ZM9.33366 15.95C9.33366 12.5584 11.8753 9.7667 15.1503 9.3417L16.6837 16.5334H15.6003C15.1753 16.5334 14.767 16.725 14.5003 17.0584C14.2337 17.3917 14.1253 17.825 14.217 18.2417L15.142 22.55C11.867 22.1334 9.32533 19.3334 9.32533 15.9417L9.33366 15.95ZM16.8503 22.5584L15.917 18.2084H16.9587C17.4003 18.2084 17.8087 18.0167 18.0837 17.675C18.3587 17.3334 18.467 16.8917 18.3753 16.4667L16.8587 9.35003C20.1337 9.77503 22.667 12.5667 22.667 15.9584C22.667 19.35 20.1253 22.1417 16.8503 22.5667V22.5584Z" fill="white"/>
</svg>
