<svg width="32" height="32" viewBox="0 0 32 32" fill="none" xmlns="http://www.w3.org/2000/svg">
<path d="M16 32C24.8366 32 32 24.8366 32 16C32 7.16345 24.8366 0 16 0C7.16344 0 0 7.16345 0 16C0 24.8366 7.16344 32 16 32Z" fill="#FF775F"/>
<path d="M20.8503 15.2498C19.3753 12.7332 19.3337 11.0082 19.3337 10.9998C19.3337 10.6332 19.092 10.3082 18.742 10.1998C18.392 10.0915 18.0087 10.2332 17.8087 10.5332L17.242 11.3748C16.4337 8.88318 14.867 7.84151 14.7837 7.79151C14.5253 7.62484 14.2003 7.61651 13.9337 7.75818C13.667 7.90818 13.5003 8.18318 13.5003 8.49151C13.5003 11.7165 12.5587 13.1165 11.6503 14.4665C10.9253 15.5498 10.167 16.6665 10.167 18.4915C10.167 21.7082 12.7837 24.3248 16.0003 24.3248C19.217 24.3248 21.8337 21.7082 21.8337 18.4915C21.8337 17.1082 21.3087 16.0332 20.8503 15.2415V15.2498ZM16.0003 22.3582C15.467 21.7498 15.167 20.9748 15.167 20.1582C15.167 19.3415 15.467 18.5665 16.0003 17.9582C16.5337 18.5665 16.8337 19.3415 16.8337 20.1582C16.8337 20.9748 16.5337 21.7498 16.0003 22.3582ZM18.117 22.0665C18.367 21.4665 18.5003 20.8248 18.5003 20.1665C18.5003 18.5998 17.7753 17.1415 16.5087 16.1748C16.2087 15.9415 15.792 15.9415 15.492 16.1748C14.2253 17.1498 13.5003 18.5998 13.5003 20.1665C13.5003 20.8332 13.642 21.4748 13.8837 22.0665C12.6587 21.3415 11.8337 20.0165 11.8337 18.4998C11.8337 17.1832 12.3337 16.4415 13.0337 15.4082C13.792 14.2748 14.7003 12.9248 15.042 10.5248C15.467 11.2248 15.8753 12.2248 16.0087 13.5915C16.042 13.9415 16.292 14.2332 16.6337 14.3165C16.9753 14.3998 17.3337 14.2582 17.5253 13.9665L18.0753 13.1415C18.3253 13.9498 18.742 14.9582 19.4087 16.0998C19.7837 16.7415 20.167 17.5248 20.167 18.5082C20.167 20.0332 19.3337 21.3498 18.117 22.0748V22.0665Z" fill="white"/>
</svg>
