<svg width="32" height="32" viewBox="0 0 32 32" fill="none" xmlns="http://www.w3.org/2000/svg">
<path d="M16 32C24.8366 32 32 24.8366 32 16C32 7.16344 24.8366 0 16 0C7.16344 0 0 7.16344 0 16C0 24.8366 7.16344 32 16 32Z" fill="#16C784"/>
<path d="M18.4999 11C18.0416 11 17.6666 11.375 17.6666 11.8333C17.6666 12.2917 18.0416 12.6667 18.4999 12.6667H21.4916L16.8416 17.3167L14.6833 15.1667C14.0333 14.5167 12.9749 14.5167 12.3249 15.1667L7.9166 19.575C7.5916 19.9 7.5916 20.425 7.9166 20.75C8.08327 20.9167 8.2916 20.9917 8.50827 20.9917C8.72494 20.9917 8.93327 20.9083 9.09994 20.75L13.5083 16.3417L15.6666 18.4917C16.3166 19.1417 17.3749 19.1417 18.0249 18.4917L22.6749 13.8417V16.8333C22.6749 17.2917 23.0499 17.6667 23.5083 17.6667C23.9666 17.6667 24.3416 17.2917 24.3416 16.8333V12.6667C24.3416 11.75 23.5916 11 22.6749 11H18.4999Z" fill="white"/>
</svg>
