<svg width="32" height="32" viewBox="0 0 32 32" fill="none" xmlns="http://www.w3.org/2000/svg">
<path d="M16 32C24.8366 32 32 24.8366 32 16C32 7.16344 24.8366 0 16 0C7.16344 0 0 7.16344 0 16C0 24.8366 7.16344 32 16 32Z" fill="#F5B97F"/>
<rect width="20" height="20" transform="translate(6 6)" fill="#F5B97F"/>
<path d="M15.9998 7.6665C11.4082 7.6665 7.6665 11.4082 7.6665 15.9998C7.6665 20.5915 11.4082 24.3332 15.9998 24.3332C20.5915 24.3332 24.3332 20.5915 24.3332 15.9998C24.3332 11.4082 20.5915 7.6665 15.9998 7.6665ZM15.9998 22.6665C12.3248 22.6665 9.33317 19.6748 9.33317 15.9998C9.33317 12.3248 12.3248 9.33317 15.9998 9.33317C19.6748 9.33317 22.6665 12.3248 22.6665 15.9998C22.6665 19.6748 19.6748 22.6665 15.9998 22.6665Z" fill="white"/>
<path d="M19.9832 17.3415L16.8332 15.5248V11.8415C16.8332 11.3832 16.4582 11.0082 15.9998 11.0082C15.5415 11.0082 15.1665 11.3832 15.1665 11.8415V16.0082C15.1665 16.0082 15.1749 16.0582 15.1832 16.0748C15.1832 16.1498 15.1998 16.2165 15.2248 16.2832C15.2415 16.3248 15.2582 16.3665 15.2832 16.3998C15.3082 16.4498 15.3415 16.4998 15.3832 16.5415C15.4248 16.5832 15.4665 16.6165 15.5081 16.6498C15.5331 16.6665 15.5498 16.6998 15.5832 16.7165L19.1499 18.7748C19.2832 18.8498 19.4249 18.8832 19.5665 18.8832C19.8582 18.8832 20.1332 18.7332 20.2915 18.4665C20.5249 18.0665 20.3832 17.5582 19.9832 17.3248V17.3415Z" fill="white"/>
</svg>
