<svg width="32" height="32" viewBox="0 0 32 32" fill="none" xmlns="http://www.w3.org/2000/svg">
<path d="M16 32C24.8366 32 32 24.8366 32 16C32 7.16345 24.8366 0 16 0C7.16344 0 0 7.16345 0 16C0 24.8366 7.16344 32 16 32Z" fill="#F5B97F"/>
<path d="M16 23.5C15.3083 23.5 15 22.9417 15 22.25V9.75C15 9.05833 15.3083 8.5 16 8.5C16.6917 8.5 17 9.05833 17 9.75V22.25C17 22.9417 16.6917 23.5 16 23.5Z" fill="white"/>
<path d="M22 23.5C21.3083 23.5 21 22.9417 21 22.25V13.0833C21 12.3917 21.3083 11.8333 22 11.8333C22.6917 11.8333 23 12.3917 23 13.0833V22.25C23 22.9417 22.6917 23.5 22 23.5Z" fill="white"/>
<path d="M10 23.5C9.30833 23.5 9 22.9417 9 22.25V16.4167C9 15.725 9.30833 15.1667 10 15.1667C10.6917 15.1667 11 15.725 11 16.4167V22.25C11 22.9417 10.6917 23.5 10 23.5Z" fill="white"/>
</svg>
