<svg width="32" height="32" viewBox="0 0 32 32" fill="none" xmlns="http://www.w3.org/2000/svg">
<path d="M16 32C24.8366 32 32 24.8366 32 16C32 7.16344 24.8366 0 16 0C7.16344 0 0 7.16344 0 16C0 24.8366 7.16344 32 16 32Z" fill="#FF775F"/>
<path fill-rule="evenodd" clip-rule="evenodd" d="M16 10.1667C16.6622 10.1667 17.3063 10.2438 17.9239 10.3894C18.4376 10.5106 18.6492 11.0973 18.3852 11.5537C18.1846 11.9005 17.7697 12.0547 17.377 11.9724C16.9327 11.8792 16.4721 11.8303 16 11.8303C12.3181 11.8303 9.33333 14.8095 9.33333 18.4846C9.33333 18.8567 9.36392 19.2215 9.42271 19.5769C9.51273 20.1211 9.12373 20.6681 8.57118 20.6681C8.20851 20.6681 7.88675 20.4262 7.818 20.0708C7.71868 19.5573 7.66667 19.0271 7.66667 18.4846C7.66667 13.8908 11.3976 10.1667 16 10.1667ZM23.4288 20.6681C23.7915 20.6681 24.1133 20.4262 24.182 20.0708C24.2813 19.5573 24.3333 19.0271 24.3333 18.4846C24.3333 17.2416 24.0602 16.0623 23.5705 15.0032C23.2957 14.4087 22.4931 14.4333 22.1651 15.0004C22.0128 15.2636 22.0097 15.5845 22.1297 15.8639C22.4753 16.6681 22.6667 17.5541 22.6667 18.4846C22.6667 18.8567 22.6361 19.2215 22.5773 19.5769C22.4873 20.1211 22.8763 20.6681 23.4288 20.6681Z" fill="white"/>
<path d="M15.8917 21.0097C15.3042 20.6705 15.123 19.9069 15.4955 19.34L20.4239 11.8376C20.6166 11.5444 21.0045 11.4523 21.3083 11.6277C21.6122 11.8032 21.7264 12.1852 21.5688 12.4986L17.5358 20.518C17.231 21.124 16.4792 21.3489 15.8917 21.0097Z" fill="white"/>
</svg>
