<svg width="32" height="32" viewBox="0 0 32 32" fill="none" xmlns="http://www.w3.org/2000/svg">
<path d="M16 32C24.8366 32 32 24.8366 32 16C32 7.16344 24.8366 0 16 0C7.16344 0 0 7.16344 0 16C0 24.8366 7.16344 32 16 32Z" fill="#8A3FFC"/>
<rect width="20" height="20" transform="translate(6 6)" fill="#8A3FFC"/>
<path d="M9.33329 15.225C9.04162 15.225 8.76662 15.075 8.60829 14.8083C8.37496 14.4083 8.51662 13.9 8.91662 13.6666L13.475 11.0333C14.1916 10.6166 15.075 10.6166 15.7916 11.0333L16.6 11.5C16.8 11.6166 17.05 11.6166 17.25 11.5L22.25 8.60829C22.65 8.37496 23.1583 8.51662 23.3916 8.91662C23.6249 9.31662 23.4833 9.82496 23.0833 10.0583L18.0833 12.95C17.3666 13.3583 16.4833 13.3583 15.7666 12.95L14.9583 12.4833C14.7583 12.3666 14.5166 12.3666 14.3083 12.4833L9.74995 15.1166C9.61662 15.1916 9.47495 15.225 9.33329 15.225Z" fill="white"/>
<path d="M21.8333 23.5C21.375 23.5 21 23.125 21 22.6666V14.3333C21 13.875 21.375 13.5 21.8333 13.5C22.2916 13.5 22.6666 13.875 22.6666 14.3333V22.6666C22.6666 23.125 22.2916 23.5 21.8333 23.5Z" fill="white"/>
<path d="M16 23.5C15.5416 23.5 15.1666 23.125 15.1666 22.6666V16C15.1666 15.5416 15.5416 15.1666 16 15.1666C16.4583 15.1666 16.8333 15.5416 16.8333 16V22.6666C16.8333 23.125 16.4583 23.5 16 23.5Z" fill="white"/>
<path d="M10.1666 23.5C9.70829 23.5 9.33329 23.125 9.33329 22.6666V17.6666C9.33329 17.2083 9.70829 16.8333 10.1666 16.8333C10.625 16.8333 11 17.2083 11 17.6666V22.6666C11 23.125 10.625 23.5 10.1666 23.5Z" fill="white"/>
</svg>
