<svg width="32" height="32" viewBox="0 0 32 32" fill="none" xmlns="http://www.w3.org/2000/svg">
<path d="M16 32C24.8366 32 32 24.8366 32 16C32 7.16344 24.8366 0 16 0C7.16344 0 0 7.16344 0 16C0 24.8366 7.16344 32 16 32Z" fill="#3861FB"/>
<path fill-rule="evenodd" clip-rule="evenodd" d="M16.0003 10.167C16.6625 10.167 17.3066 10.2441 17.9242 10.3898C18.438 10.5109 18.6495 11.0976 18.3855 11.554C18.1849 11.9008 17.77 12.055 17.3774 11.9727C16.933 11.8796 16.4724 11.8306 16.0003 11.8306C12.3184 11.8306 9.33366 14.8099 9.33366 18.485C9.33366 18.857 9.36424 19.2219 9.42303 19.5772C9.51306 20.1214 9.12405 20.6684 8.5715 20.6684C8.20883 20.6684 7.88708 20.4266 7.81832 20.0711C7.71901 19.5577 7.66699 19.0274 7.66699 18.485C7.66699 13.8911 11.398 10.167 16.0003 10.167ZM23.4292 20.6684C23.7918 20.6684 24.1136 20.4266 24.1823 20.0711C24.2816 19.5577 24.3337 19.0274 24.3337 18.485C24.3337 17.242 24.0605 16.0627 23.5709 15.0036C23.296 14.409 22.4934 14.4336 22.1654 15.0007C22.0131 15.2639 22.01 15.5848 22.13 15.8642C22.4756 16.6685 22.667 17.5544 22.667 18.485C22.667 18.857 22.6364 19.2219 22.5776 19.5772C22.4876 20.1214 22.8766 20.6684 23.4292 20.6684Z" fill="white"/>
<path d="M15.892 21.01C15.3045 20.6708 15.1233 19.9073 15.4958 19.3403L20.4242 11.8379C20.6169 11.5447 21.0048 11.4526 21.3087 11.6281C21.6125 11.8035 21.7268 12.1855 21.5691 12.4989L17.5361 20.5183C17.2313 21.1243 16.4795 21.3492 15.892 21.01Z" fill="white"/>
</svg>
