<svg width="32" height="32" viewBox="0 0 32 32" fill="none" xmlns="http://www.w3.org/2000/svg">
<path d="M16 32C24.8366 32 32 24.8366 32 16C32 7.16344 24.8366 0 16 0C7.16344 0 0 7.16344 0 16C0 24.8366 7.16344 32 16 32Z" fill="#2444D4"/>
<path d="M22.6667 21.0002H17.6667C17.2083 21.0002 16.8333 20.6252 16.8333 20.1668C16.8333 19.7085 17.2083 19.3335 17.6667 19.3335H22.6667C23.125 19.3335 23.5 19.7085 23.5 20.1668C23.5 20.6252 23.125 21.0002 22.6667 21.0002Z" fill="white"/>
<path d="M20.1667 23.5002C19.7083 23.5002 19.3333 23.1252 19.3333 22.6668V17.6668C19.3333 17.2085 19.7083 16.8335 20.1667 16.8335C20.625 16.8335 21 17.2085 21 17.6668V22.6668C21 23.1252 20.625 23.5002 20.1667 23.5002Z" fill="white"/>
<path d="M22.6667 11.0002H9.33333C8.875 11.0002 8.5 10.6252 8.5 10.1668C8.5 9.7085 8.875 9.3335 9.33333 9.3335H22.6667C23.125 9.3335 23.5 9.7085 23.5 10.1668C23.5 10.6252 23.125 11.0002 22.6667 11.0002Z" fill="white"/>
<path d="M18.5 16.0002H9.33333C8.875 16.0002 8.5 15.6252 8.5 15.1668C8.5 14.7085 8.875 14.3335 9.33333 14.3335H18.5C18.9583 14.3335 19.3333 14.7085 19.3333 15.1668C19.3333 15.6252 18.9583 16.0002 18.5 16.0002Z" fill="white"/>
<path d="M14.3333 21.0002H9.33333C8.875 21.0002 8.5 20.6252 8.5 20.1668C8.5 19.7085 8.875 19.3335 9.33333 19.3335H14.3333C14.7917 19.3335 15.1667 19.7085 15.1667 20.1668C15.1667 20.6252 14.7917 21.0002 14.3333 21.0002Z" fill="white"/>
</svg>
