<svg width="32" height="32" viewBox="0 0 32 32" fill="none" xmlns="http://www.w3.org/2000/svg">
<path d="M16 32C24.8366 32 32 24.8366 32 16C32 7.16344 24.8366 0 16 0C7.16344 0 0 7.16344 0 16C0 24.8366 7.16344 32 16 32Z" fill="#16C784"/>
<path d="M21.8408 10.175H20.1732V9.33333C20.1732 8.875 19.7979 8.5 19.3394 8.5C18.8808 8.5 18.5056 8.875 18.5056 9.33333V10.175H13.5028V9.33333C13.5028 8.875 13.1276 8.5 12.669 8.5C12.2104 8.5 11.8352 8.875 11.8352 9.33333V10.175H10.1676C9.24208 10.175 8.5 10.925 8.5 11.8417V21.8333C8.5 22.7583 9.25042 23.5 10.1676 23.5H21.8324C22.7579 23.5 23.5 22.7583 23.5 21.8333V11.8417C23.5 10.9167 22.7496 10.175 21.8324 10.175H21.8408ZM21.8408 21.8333H10.1676V11.8333H11.8352V12.6667C11.8352 13.125 12.2104 13.5 12.669 13.5C13.1276 13.5 13.5028 13.125 13.5028 12.6667V11.8333H18.5056V12.6667C18.5056 13.125 18.8808 13.5 19.3394 13.5C19.7979 13.5 20.1732 13.125 20.1732 12.6667V11.8333H21.8408V21.8333Z" fill="white"/>
<path d="M19.3394 18.5H12.669C12.2104 18.5 11.8352 18.875 11.8352 19.3333C11.8352 19.7917 12.2104 20.1667 12.669 20.1667H19.3394C19.7979 20.1667 20.1732 19.7917 20.1732 19.3333C20.1732 18.875 19.7979 18.5 19.3394 18.5Z" fill="white"/>
</svg>
