<svg width="32" height="32" viewBox="0 0 32 32" fill="none" xmlns="http://www.w3.org/2000/svg">
<path d="M16 32C24.8366 32 32 24.8366 32 16C32 7.16344 24.8366 0 16 0C7.16344 0 0 7.16344 0 16C0 24.8366 7.16344 32 16 32Z" fill="#13B2CF"/>
<path d="M24.0502 14.9915C22.1835 11.9748 19.1752 10.1665 16.0002 10.1665C12.8252 10.1665 9.81686 11.9665 7.9502 14.9832C7.5752 15.5915 7.5752 16.3998 7.9502 17.0082C9.81686 20.0248 12.8252 21.8332 16.0002 21.8332C19.1752 21.8332 22.1835 20.0332 24.0502 17.0082C24.4252 16.3998 24.4252 15.5915 24.0502 14.9832V14.9915ZM22.6335 16.1415C21.0502 18.6998 18.6335 20.1748 16.0002 20.1748C13.3669 20.1748 10.9502 18.7082 9.36686 16.1415C9.3252 16.0748 9.3252 15.9415 9.36686 15.8665C10.9502 13.3082 13.3669 11.8332 16.0002 11.8332C18.6335 11.8332 21.0502 13.2998 22.6335 15.8665C22.6752 15.9332 22.6752 16.0665 22.6335 16.1415Z" fill="white"/>
<path d="M16.0002 12.6665C14.1585 12.6665 12.6669 14.1582 12.6669 15.9998C12.6669 17.8415 14.1585 19.3332 16.0002 19.3332C17.8419 19.3332 19.3335 17.8415 19.3335 15.9998C19.3335 14.1582 17.8419 12.6665 16.0002 12.6665ZM16.0002 17.6665C15.0835 17.6665 14.3335 16.9165 14.3335 15.9998C14.3335 15.9998 14.3335 15.9915 14.3335 15.9832C14.5169 16.2498 14.8085 16.4415 15.1502 16.4415C15.7002 16.4415 16.1502 15.9915 16.1502 15.4415C16.1502 14.9498 15.7919 14.5665 15.3335 14.4748C15.5335 14.3832 15.7585 14.3332 16.0002 14.3332C16.9169 14.3332 17.6669 15.0832 17.6669 15.9998C17.6669 16.9165 16.9169 17.6665 16.0002 17.6665Z" fill="white"/>
</svg>
