<svg width="32" height="32" viewBox="0 0 32 32" fill="none" xmlns="http://www.w3.org/2000/svg">
<circle cx="16" cy="16" r="16" fill="#16C784"/>
<path fill-rule="evenodd" clip-rule="evenodd" d="M20.1665 7.6665C17.8653 7.6665 15.9998 9.53198 15.9998 11.8332V14.3332H8.49984C8.0396 14.3332 7.6665 14.7063 7.6665 15.1665V23.4998C7.6665 23.9601 8.0396 24.3332 8.49984 24.3332H20.1665C20.6267 24.3332 20.9998 23.9601 20.9998 23.4998V15.1665C20.9998 14.7063 20.6267 14.3332 20.1665 14.3332H17.6665V11.8332C17.6665 10.4525 18.7858 9.33317 20.1665 9.33317C21.5472 9.33317 22.6665 10.4525 22.6665 11.8332V12.6665C22.6665 13.1267 23.0396 13.4998 23.4998 13.4998C23.9601 13.4998 24.3332 13.1267 24.3332 12.6665V11.8332C24.3332 9.53198 22.4677 7.6665 20.1665 7.6665ZM9.33317 22.6665V15.9998H19.3332V22.6665H9.33317Z" fill="white"/>
</svg>
